# xmcd CD database file generated by OrangeCD 5.2
#
# Track frame offsets:
#	150
#	11092
#	19547
#	31310
#	44262
#	54977
#	66317
#	77272
#	88820
#	98562
#
# Disc length: 1453 seconds
#
# Revision: 0
# Processed by: cddbd v1.5.1PL0 Copyright (c) Steve Scherf et al.
# Submitted via: OrangeCD 5.2
#
DISCID=6c05ab0a
DTITLE=Various Artist - R&B Essentials
DYEAR=1995
DGENRE=R&B Compilation
TTITLE0=Fats Domino - Ain't That A Shame
TTITLE1=The Chiffons - He's So Fine
TTITLE2=Inez Foxx - Mockingbird
TTITLE3=Ike and Tina Turner - It's Gonna Work Out Fine
TTITLE4=Shirley and Lee - Let The Good Times Roll
TTITLE5=Ernie K- Doe - Mother-In-Law
TTITLE6=The Falcons - You're So Fine
TTITLE7=Johnny Otis - Willie And The Hand Jive
TTITLE8=The Jarmels - A Little Bit Of Soap
TTITLE9=Jessie Hill - Ooh Poo Pah Doo
EXTD=
EXTT0=
EXTT1=
EXTT2=
EXTT3=
EXTT4=
EXTT5=
EXTT6=
EXTT7=
EXTT8=
EXTT9=
PLAYORDER=
